<svg width="42" height="12" viewBox="0 0 42 12" fill="none" xmlns="http://www.w3.org/2000/svg">
<path d="M39.1172 11.8131V9.9905L38.9991 9.60236V6.41285C38.9991 5.79407 38.8134 5.31593 38.4422 4.97841C38.0709 4.62965 37.5084 4.45527 36.7546 4.45527C36.2483 4.45527 35.7477 4.53402 35.2527 4.69153C34.7689 4.84903 34.3583 5.06842 34.0208 5.34968L33.1938 3.81399C33.6776 3.44273 34.2514 3.16709 34.9152 2.98708C35.5902 2.79582 36.2877 2.7002 37.0078 2.7002C38.3128 2.7002 39.3197 3.01521 40.0285 3.64523C40.7485 4.26401 41.1085 5.22593 41.1085 6.53098V11.8131H39.1172ZM36.2821 11.9312C35.6071 11.9312 35.0164 11.8187 34.5101 11.5937C34.0039 11.3574 33.6101 11.0368 33.3288 10.6318C33.0588 10.2155 32.9238 9.74861 32.9238 9.23109C32.9238 8.72482 33.042 8.26918 33.2782 7.86416C33.5257 7.45914 33.9251 7.1385 34.4764 6.90225C35.0277 6.66599 35.7589 6.54786 36.6702 6.54786H39.286V7.94854H36.8221C36.1021 7.94854 35.6183 8.06667 35.3708 8.30293C35.1233 8.52794 34.9995 8.8092 34.9995 9.14671C34.9995 9.52923 35.1514 9.83299 35.4552 10.058C35.7589 10.283 36.1808 10.3955 36.7209 10.3955C37.2384 10.3955 37.6997 10.2774 38.1047 10.0411C38.5209 9.80487 38.8191 9.4561 38.9991 8.99483L39.3535 10.2605C39.151 10.7893 38.7853 11.1999 38.2566 11.4924C37.739 11.7849 37.0809 11.9312 36.2821 11.9312Z" fill="black"/>
<path d="M29.805 11.9311C28.815 11.9311 28.05 11.678 27.5099 11.1717C26.9699 10.6542 26.6999 9.89481 26.6999 8.89352V0.810059H28.8094V8.84289C28.8094 9.27041 28.9162 9.6023 29.13 9.83856C29.355 10.0748 29.6644 10.1929 30.0582 10.1929C30.5307 10.1929 30.9245 10.0692 31.2395 9.82168L31.8301 11.3236C31.5826 11.5261 31.2788 11.678 30.9188 11.7793C30.5588 11.8805 30.1876 11.9311 29.805 11.9311ZM25.2148 4.55646V2.86889H31.2226V4.55646H25.2148Z" fill="black"/>
<path d="M20.1507 11.9312C19.1494 11.9312 18.2719 11.7343 17.5181 11.3406C16.7756 10.9355 16.1962 10.3843 15.7799 9.68674C15.3749 8.98921 15.1724 8.19605 15.1724 7.30726C15.1724 6.40723 15.3692 5.61407 15.763 4.92779C16.168 4.23026 16.7193 3.68461 17.4168 3.29085C18.1256 2.89708 18.93 2.7002 19.8301 2.7002C20.7076 2.7002 21.4895 2.89145 22.1758 3.27397C22.8621 3.65648 23.4021 4.19651 23.7958 4.89404C24.1896 5.59157 24.3865 6.41285 24.3865 7.35789C24.3865 7.44789 24.3809 7.54915 24.3696 7.66165C24.3696 7.77416 24.364 7.88104 24.3527 7.98229H16.8431V6.58161H23.2389L22.412 7.02038C22.4233 6.50285 22.3164 6.04721 22.0914 5.65344C21.8664 5.25968 21.557 4.95029 21.1632 4.72528C20.7807 4.50027 20.3363 4.38777 19.8301 4.38777C19.3125 4.38777 18.8569 4.50027 18.4631 4.72528C18.0806 4.95029 17.7768 5.2653 17.5518 5.67032C17.3381 6.06409 17.2312 6.53098 17.2312 7.071V7.40852C17.2312 7.94854 17.355 8.42668 17.6025 8.84295C17.85 9.25922 18.1987 9.57986 18.6488 9.80487C19.0988 10.0299 19.6163 10.1424 20.2013 10.1424C20.7076 10.1424 21.1632 10.0636 21.5683 9.90612C21.9733 9.74861 22.3333 9.5011 22.6483 9.16359L23.779 10.463C23.374 10.9355 22.8621 11.3012 22.2433 11.5599C21.6358 11.8074 20.9382 11.9312 20.1507 11.9312Z" fill="black"/>
<path d="M0 11.813V0H1.8057L6.96966 8.62348H6.02463L11.1042 0H12.9099L12.9268 11.813H10.8511L10.8342 3.25701H11.273L6.95279 10.4629H5.974L1.58632 3.25701H2.09259V11.813H0Z" fill="black"/>
</svg>
